<?xml version="1.0" standalone="no"?>
<!DOCTYPE svg PUBLIC "-//W3C//DTD SVG 20010904//EN"
 "http://www.w3.org/TR/2001/REC-SVG-20010904/DTD/svg10.dtd">
<svg version="1.0" xmlns="http://www.w3.org/2000/svg"
 width="1254.000000pt" height="1254.000000pt" viewBox="0 0 1254.000000 1254.000000"
 preserveAspectRatio="xMidYMid meet">

<g transform="translate(0.000000,1254.000000) scale(0.100000,-0.100000)"
fill="#000000" stroke="none">
<path d="M3166 9938 c4 -7 94 -139 199 -293 105 -154 509 -755 897 -1335 791
-1181 1195 -1784 1437 -2143 411 -607 565 -833 577 -847 12 -12 14 151 14
1050 l0 1064 -837 1258 -838 1257 -728 1 c-580 0 -727 -3 -721 -12z"/>
<path d="M6950 9942 c0 -6 266 -379 285 -400 2 -3 309 -57 375 -66 110 -15
283 -45 287 -50 10 -9 -67 -96 -85 -97 -9 0 -26 -2 -37 -4 -11 -3 -87 -12
-169 -22 l-149 -17 -66 -104 c-213 -335 -587 -894 -823 -1231 l-138 -196 0
-130 c0 -71 4 -348 10 -615 5 -267 10 -657 12 -867 2 -211 4 -383 6 -383 1 0
458 685 1014 1523 557 837 1182 1776 1389 2087 207 311 376 566 375 566 -7 6
-2286 12 -2286 6z"/>
<path d="M1240 4874 c0 -3 8 -18 19 -32 18 -27 622 -1009 656 -1069 22 -37 44
-43 166 -43 88 0 88 0 112 33 29 39 664 1079 673 1101 5 14 -8 16 -113 16
l-120 0 -74 -122 c-326 -537 -495 -808 -502 -805 -5 1 -136 210 -291 462
l-282 460 -122 3 c-67 1 -122 0 -122 -4z"/>
<path d="M3324 4867 c-3 -8 -4 -54 -2 -103 l3 -89 613 -3 612 -2 0 105 0 105
-610 0 c-499 0 -612 -2 -616 -13z"/>
<path d="M4990 4775 l0 -105 483 0 c446 0 485 -2 522 -19 48 -22 69 -44 90
-94 27 -64 13 -149 -33 -201 -9 -10 -35 -27 -57 -37 -37 -17 -76 -19 -522 -19
l-483 0 0 -285 0 -285 98 3 97 2 5 180 5 180 286 3 285 2 155 -157 c85 -86
166 -169 181 -185 l26 -28 136 0 c75 0 136 3 136 7 0 4 -83 91 -185 193 l-186
186 51 18 c73 26 157 106 191 182 50 111 48 247 -6 354 -27 54 -105 130 -165
160 -89 45 -144 50 -642 50 l-468 0 0 -105z"/>
<path d="M6634 4867 c-3 -8 -4 -54 -2 -103 l3 -89 262 -3 263 -2 2 -468 3
-467 100 0 c73 0 100 3 101 13 1 6 2 217 3 467 l1 455 258 2 257 3 3 103 3
102 -626 0 c-511 0 -627 -2 -631 -13z"/>
<path d="M8254 4867 c-3 -8 -4 -54 -2 -103 l3 -89 605 0 605 0 3 103 3 102
-606 0 c-495 0 -607 -2 -611 -13z"/>
<path d="M9900 4874 c0 -4 123 -133 274 -288 l273 -281 -273 -280 c-151 -154
-274 -283 -274 -286 0 -3 59 -7 131 -8 l131 -2 211 216 212 217 214 -216 213
-216 127 0 c70 0 131 3 134 6 3 4 -74 88 -171 188 -98 99 -348 355 -557 569
l-378 387 -134 0 c-73 0 -133 -3 -133 -6z"/>
<path d="M10900 4763 c-58 -60 -130 -134 -160 -166 l-54 -57 64 -65 c35 -36
67 -65 70 -65 4 0 107 104 229 230 l223 230 -134 0 -133 0 -105 -107z"/>
<path d="M3324 4397 c-3 -8 -4 -54 -2 -103 l3 -89 553 -3 552 -2 0 105 0 105
-550 0 c-449 0 -552 -2 -556 -13z"/>
<path d="M8254 4397 c-3 -8 -4 -54 -2 -103 l3 -89 546 -3 547 -2 4 57 c2 32 2
79 0 106 l-4 47 -544 0 c-444 0 -546 -2 -550 -13z"/>
<path d="M3324 3927 c-3 -8 -4 -54 -2 -103 l3 -89 610 0 610 0 3 103 3 102
-611 0 c-499 0 -612 -2 -616 -13z"/>
<path d="M8254 3927 c-3 -8 -4 -54 -2 -103 l3 -89 605 0 605 0 3 103 3 102
-606 0 c-495 0 -607 -2 -611 -13z"/>
<path d="M3740 3360 c-50 -9 -79 -30 -101 -72 -39 -76 -15 -173 52 -210 41
-23 124 -20 163 5 23 16 26 24 26 80 l0 62 -57 -2 c-44 -1 -59 -5 -61 -17 -3
-13 5 -16 37 -16 40 0 41 -1 41 -35 0 -41 -20 -55 -79 -55 -59 0 -92 32 -98
96 -5 61 11 93 60 119 35 19 38 19 84 3 53 -19 79 -10 51 18 -20 21 -75 32
-118 24z"/>
<path d="M7630 3361 c-48 -12 -80 -46 -80 -85 0 -32 44 -66 99 -76 83 -15 111
-49 71 -85 -29 -26 -93 -25 -123 3 -15 14 -30 20 -40 16 -24 -9 -21 -19 15
-49 29 -25 38 -27 96 -23 55 4 68 8 88 32 13 15 24 38 24 52 0 31 -39 71 -77
80 -89 20 -102 25 -109 46 -5 16 0 27 16 40 27 22 61 23 100 3 16 -8 36 -12
45 -9 14 6 14 8 -1 25 -14 16 -78 41 -94 38 -3 -1 -16 -4 -30 -8z"/>
<path d="M9396 3360 c-97 -29 -136 -170 -70 -249 33 -40 75 -54 136 -49 43 5
57 11 84 41 77 84 41 227 -64 257 -42 11 -47 11 -86 0z m100 -49 c63 -38 69
-138 13 -185 -91 -77 -213 24 -165 137 25 61 95 83 152 48z"/>
<path d="M3010 3210 l0 -150 68 0 c117 0 182 54 182 153 0 99 -61 147 -185
147 l-65 0 0 -150z m181 81 c22 -23 29 -39 29 -70 0 -82 -40 -121 -125 -121
l-45 0 0 110 0 110 56 0 c48 0 59 -4 85 -29z"/>
<path d="M3420 3210 c0 -143 1 -150 20 -150 19 0 20 7 20 150 0 143 -1 150
-20 150 -19 0 -20 -7 -20 -150z"/>
<path d="M4050 3358 c0 -2 -1 -68 -3 -148 -2 -139 -1 -145 18 -145 19 0 20 7
20 145 0 130 -2 145 -17 148 -10 2 -18 2 -18 0z"/>
<path d="M4230 3340 c0 -17 7 -20 50 -20 l50 0 0 -131 c0 -119 2 -130 18 -127
15 3 17 19 20 131 l3 127 44 0 c38 0 45 3 45 20 0 19 -7 20 -115 20 -108 0
-115 -1 -115 -20z"/>
<path d="M4612 3220 c-34 -77 -62 -145 -62 -151 0 -23 36 -2 49 29 l15 32 78
0 78 0 17 -35 c15 -32 53 -50 53 -26 0 6 -28 73 -62 150 -82 188 -84 188 -166
1z m113 24 c14 -31 25 -60 25 -65 0 -5 -25 -9 -56 -9 -53 0 -55 1 -48 23 13
40 43 107 49 107 3 0 16 -25 30 -56z"/>
<path d="M4990 3221 c0 -78 0 -144 0 -148 0 -5 42 -8 92 -8 80 0 93 2 96 18 3
15 -6 17 -72 17 l-75 0 -3 127 c-3 112 -5 128 -20 131 -16 3 -18 -9 -18 -137z"/>
<path d="M5510 3214 c0 -121 2 -144 15 -144 12 0 15 19 15 110 0 61 3 110 8
110 4 0 27 -32 52 -70 25 -38 48 -70 52 -70 4 0 26 31 50 70 24 38 46 70 51
70 4 0 7 -49 7 -110 0 -91 3 -110 15 -110 13 0 15 22 15 135 0 74 0 138 0 143
1 4 -7 8 -17 10 -13 2 -32 -20 -67 -73 -27 -41 -51 -75 -55 -75 -3 0 -26 31
-51 69 -29 45 -53 71 -67 74 l-23 4 0 -143z"/>
<path d="M6023 3353 l-53 -4 0 -140 0 -139 105 0 c87 0 105 3 105 15 0 12 -16
15 -85 15 l-85 0 0 50 0 50 81 0 c60 0 80 3 77 13 -3 8 -31 13 -81 15 l-77 3
0 47 0 48 83 -1 c66 0 82 3 82 15 0 16 -50 20 -152 13z"/>
<path d="M6358 3353 c-16 -4 -18 -20 -18 -144 l0 -139 76 0 c60 0 84 5 110 20
61 38 81 143 39 207 -31 47 -135 75 -207 56z m115 -33 c10 0 32 -13 48 -29 34
-34 39 -92 14 -142 -19 -36 -50 -49 -116 -49 l-49 0 0 108 c0 60 3 112 7 116
4 4 23 5 43 2 19 -3 43 -5 53 -6z"/>
<path d="M6757 3353 c-4 -3 -7 -69 -7 -145 0 -109 3 -138 14 -138 15 0 28 162
19 242 -6 46 -12 56 -26 41z"/>
<path d="M7075 3350 c-12 -5 -32 -35 -49 -76 -16 -38 -44 -99 -62 -136 -30
-64 -31 -68 -12 -68 13 0 24 10 31 30 l11 30 86 0 86 0 11 -30 c6 -16 18 -30
27 -30 9 0 16 3 16 6 0 9 -112 267 -119 275 -3 4 -15 3 -26 -1z m68 -182 c-6
-12 -123 -9 -123 2 0 6 14 41 31 78 l30 67 33 -70 c18 -38 31 -73 29 -77z"/>
<path d="M7900 3341 c0 -17 8 -20 47 -23 l47 -3 3 -125 c2 -112 5 -125 20
-125 16 0 18 13 21 128 l3 127 44 0 c38 0 45 3 45 20 0 19 -7 20 -115 20 -107
0 -115 -1 -115 -19z"/>
<path d="M8278 3313 c-4 -98 2 -179 14 -201 36 -67 173 -68 208 -2 6 12 11 71
11 133 1 102 -1 112 -18 112 -16 0 -19 -12 -23 -113 -6 -125 -14 -142 -73
-142 -68 0 -87 38 -87 171 0 72 -3 89 -15 89 -11 0 -16 -13 -17 -47z"/>
<path d="M8682 3213 l3 -148 81 0 c123 1 168 40 169 146 0 102 -57 149 -183
149 l-73 0 3 -147z m168 92 c56 -29 64 -129 14 -176 -20 -19 -36 -24 -82 -24
l-57 0 -3 108 -3 107 51 0 c28 0 64 -7 80 -15z"/>
<path d="M9097 3353 c-4 -3 -7 -69 -7 -145 0 -112 3 -140 15 -144 8 -3 18 -4
22 -1 4 3 7 71 5 151 -2 111 -6 146 -16 146 -7 0 -16 -3 -19 -7z"/>
<path d="M1425 3209 c61 -9 1144 -8 1200 1 22 4 -250 7 -605 7 -355 0 -622 -3
-595 -8z"/>
<path d="M10045 3209 c117 -9 1039 -9 1130 1 39 4 -220 7 -575 7 -360 0 -605
-3 -555 -8z"/>
</g>
</svg>
